<?xml version="1.0"?>

<!DOCTYPE svg PUBLIC '-//W3C//DTD SVG 1.0//EN' 'http://www.w3.org/TR/2001/REC-SVG-20010904/DTD/svg10.dtd'>
<svg fill-opacity="1" xmlns:xlink="http://www.w3.org/1999/xlink" color-rendering="auto" color-interpolation="auto" text-rendering="auto" stroke="black" stroke-linecap="square" stroke-miterlimit="10" shape-rendering="auto" stroke-opacity="1" fill="black" stroke-dasharray="none" font-weight="normal" stroke-width="1" xmlns="http://www.w3.org/2000/svg" font-family="&apos;Dialog&apos;" font-style="normal" stroke-linejoin="miter" font-size="12" stroke-dashoffset="0" image-rendering="auto">
  <!--Unicode Character 'TELEVISION' (U+1F4FA)-->
  <defs id="genericDefs" />
  <g>
    <g>
      <path d="M233.5781 314.5781 Q232.3125 316.2656 229.2188 318.375 Q223.0312 320.0625 209.5312 319.5 L208.8281 319.7812 Q209.8125 324.8438 209.8125 326.8125 Q209.8125 335.9531 198.1406 335.9531 Q185.4844 335.9531 182.1094 332.1562 Q176.625 325.5469 171.1406 318.9375 L78.8906 318.9375 Q76.9219 318.9375 66.7969 332.5781 Q64.2656 335.9531 53.8594 335.9531 Q38.9531 335.9531 38.9531 328.3594 Q38.9531 323.7188 41.0625 319.6406 Q42.1875 319.7812 30.6562 319.7812 Q15.75 319.7812 15.75 312.0469 L15.75 125.0156 Q15.75 120.5156 20.8125 116.1562 L97.4531 116.1562 Q100.5469 110.5312 104.4844 105.0469 L84.7969 74.6719 L84.7969 71.5781 Q87.1875 70.3125 88.0312 70.3125 Q89.4375 70.3125 98.7188 84.6562 Q104.2031 93.375 109.6875 101.9531 Q114.8906 99.8438 120.7969 99.8438 Q133.3125 99.8438 139.5 101.9531 Q145.4062 91.6875 158.3438 72 Q159.6094 70.3125 161.2969 70.3125 Q162 70.3125 164.3906 71.5781 L164.3906 74.6719 L144.8438 105.0469 Q146.1094 106.5938 151.7344 116.1562 L228.375 116.1562 Q233.5781 123.6094 233.5781 125.8594 L233.5781 314.5781 ZM144.4219 116.0156 Q141.4688 105.6094 124.5938 105.6094 Q108.9844 105.6094 104.4844 116.0156 L144.4219 116.0156 ZM220.2188 307.125 L220.2188 130.6406 L29.1094 130.6406 L29.1094 307.125 L220.2188 307.125 ZM197.2969 324.7031 Q196.7344 322.7344 195.1875 318.9375 L186.4688 318.9375 Q187.1719 321.4688 189.5625 324.7031 L197.2969 324.7031 ZM62.7188 318.9375 L54.1406 318.9375 Q53.7188 319.5 51.1875 324.7031 L58.9219 324.7031 Q61.5938 321.1875 62.7188 318.9375 ZM214.7344 233.4375 Q214.7344 237.0938 211.9219 247.5 Q211.7812 248.2031 209.5312 253.8281 Q200.9531 275.625 156.6562 275.625 L90.1406 275.625 Q70.0312 275.625 55.9688 269.0156 Q37.8281 260.4375 36 242.8594 Q34.4531 228.0938 34.4531 229.0781 L34.4531 182.5312 Q34.4531 170.2969 38.25 161.1562 Q43.0312 149.4844 56.1094 144.7031 Q64.5469 141.6094 81 140.4844 Q85.3594 139.9219 93.7969 139.3594 Q95.0625 139.3594 145.6875 138.9375 Q152.2969 138.9375 164.25 139.6406 Q189.1406 141.1875 199.2656 148.3594 Q211.9219 157.3594 214.0312 180.8438 Q214.7344 188.5781 214.7344 187.4531 L214.7344 233.4375 ZM209.8125 288.5625 Q209.8125 300.6562 197.5781 300.6562 Q185.2031 300.6562 185.2031 288.5625 Q185.2031 276.4688 197.2969 276.4688 Q209.8125 276.4688 209.8125 288.5625 ZM145.6875 288.5625 Q145.6875 293.9062 140.0625 293.9062 Q134.4375 293.9062 134.4375 288.5625 Q134.4375 282.6562 139.7812 282.6562 Q141.75 282.6562 143.7188 284.625 Q145.6875 286.5938 145.6875 288.5625 ZM130.6406 288.5625 Q130.6406 293.9062 124.5938 293.9062 Q118.9688 293.9062 118.9688 288.5625 Q118.9688 286.5938 120.7969 284.625 Q122.625 282.6562 124.5938 282.6562 Q126.5625 282.6562 128.6016 284.6953 Q130.6406 286.7344 130.6406 288.5625 ZM115.3125 288.5625 Q115.3125 293.9062 109.6875 293.9062 Q104.0625 293.9062 104.0625 288.5625 Q104.0625 282.6562 109.6875 282.6562 Q115.3125 282.6562 115.3125 288.5625 ZM62.7188 288.7031 Q62.7188 300.6562 50.9062 300.6562 Q38.6719 300.6562 38.6719 288.5625 Q38.6719 276.4688 50.625 276.4688 Q62.7188 276.4688 62.7188 288.7031 ZM204.75 222.8906 L204.75 192.7969 Q204.75 184.0781 202.5 172.4062 Q198.7031 152.7188 172.5469 150.8906 Q162.5625 150.1875 164.5312 150.1875 L94.6406 150.1875 Q86.625 150.1875 74.1094 152.1562 Q59.0625 154.4062 54.9844 157.5 Q48.7969 162.1406 46.9688 176.9062 Q46.5469 178.875 46.125 182.5312 L45.7031 219.7969 Q45.7031 237.7969 49.3594 246.5156 Q54.8438 259.3125 70.0312 261.9844 Q83.3906 264.375 85.5 264.375 L167.9062 264.375 Q171.4219 264.375 181.2656 262.4062 Q183.6562 261.7031 188.4375 260.2969 Q204.75 255.6562 204.75 222.8906 ZM204.75 288.7031 Q204.75 286.1719 202.4297 283.7812 Q200.1094 281.3906 197.5781 281.3906 Q194.9062 281.3906 192.375 283.7109 Q189.8438 286.0312 189.8438 288.5625 Q189.8438 290.9531 192.4453 293.2734 Q195.0469 295.5938 197.5781 295.5938 Q199.9688 295.5938 202.3594 293.3438 Q204.75 291.0938 204.75 288.7031 ZM57.7969 288.5625 Q57.7969 286.0312 55.4766 283.7109 Q53.1562 281.3906 50.625 281.3906 Q48.375 281.3906 45.9844 283.8516 Q43.5938 286.3125 43.5938 288.5625 Q43.5938 290.8125 45.9844 293.2031 Q48.375 295.5938 50.625 295.5938 Q53.1562 295.5938 55.4766 293.3438 Q57.7969 291.0938 57.7969 288.5625 Z" stroke="none" />
    </g>
  </g>
</svg>
